HIERARCHY
ROOT Hips
{
	OFFSET 0.00 0.00 0.00
	CHANNELS 6 Xposition Yposition Zposition Yrotation Xrotation Zrotation
	JOINT LHipJoint
	{
		OFFSET	0.0000	0.0000	0.0000
		CHANNELS 3 Yrotation Xrotation Zrotation
		JOINT LeftUpLeg
		{
			OFFSET	1.0138	-0.0809	-0.0827
			CHANNELS 3 Yrotation Xrotation Zrotation
			JOINT LeftLeg
			{
				OFFSET	0.4110	-3.9095	0.3245
				CHANNELS 3 Yrotation Xrotation Zrotation
				JOINT LeftFoot
				{
					OFFSET	0.3810	-4.0555	-0.1470
					CHANNELS 3 Yrotation Xrotation Zrotation
					JOINT LeftToeBase
					{
						OFFSET	0.1396	-0.4462	1.3079
						CHANNELS 3 Yrotation Xrotation Zrotation
						End Site
						{
							OFFSET 0.0161 -0.0248 0.1809
						}
					}
				}
			}
		}
	}
	JOINT LowerBack
	{
		OFFSET	0.0000	0.7977	-0.3873
		CHANNELS 3 Yrotation Xrotation Zrotation
		JOINT Spine
		{
			OFFSET	0.0000	1.4131	0.1715
			CHANNELS 3 Yrotation Xrotation Zrotation
			JOINT Spine1
			{
				OFFSET	0.0000	1.4392	-0.1032
				CHANNELS 3 Yrotation Xrotation Zrotation
				JOINT LeftShoulder
				{
					OFFSET	0.2274	1.0382	0.4032
					CHANNELS 3 Yrotation Xrotation Zrotation
					JOINT LeftArm
					{
						OFFSET	1.4730	-0.2267	-0.0231
						CHANNELS 3 Yrotation Xrotation Zrotation
						JOINT LeftForeArm
						{
							OFFSET	1.6131	-1.8059	0.0081
							CHANNELS 3 Yrotation Xrotation Zrotation
							JOINT LeftHand
							{
								OFFSET	1.2197	-1.2423	1.6317
								CHANNELS 3 Yrotation Xrotation Zrotation
								JOINT LThumb
								{
									OFFSET	0.0109	-0.0753	0.4387
									CHANNELS 3 Yrotation Xrotation Zrotation
									End Site
									{
										OFFSET -0.2090 -0.0868 0.2097
									}
								}
								JOINT LeftFingerBase
								{
									OFFSET	0.1071	-0.1567	0.2607
									CHANNELS 3 Yrotation Xrotation Zrotation
									JOINT LeftHandFinger1
									{
										OFFSET	0.1706	-0.2492	0.6830
										CHANNELS 3 Yrotation Xrotation Zrotation
										End Site
										{
											OFFSET 0.0335 -0.1507 0.2071
										}
									}
								}
							}
						}
					}
				}
				JOINT Neck
				{
					OFFSET	0.0000	1.7498	0.2381
					CHANNELS 3 Yrotation Xrotation Zrotation
					JOINT Neck1
					{
						OFFSET	0.0000	0.5043	0.1959
						CHANNELS 3 Yrotation Xrotation Zrotation
						JOINT Head
						{
							OFFSET	0.0000	0.5044	0.1959
							CHANNELS 3 Yrotation Xrotation Zrotation
							End Site
							{
								OFFSET 0.0000 1.4798 -0.0693
							}
						}
					}
				}
				JOINT RightShoulder
				{
					OFFSET	-0.2274	1.0382	0.4032
					CHANNELS 3 Yrotation Xrotation Zrotation
					JOINT RightArm
					{
						OFFSET	-1.4730	-0.2267	-0.0231
						CHANNELS 3 Yrotation Xrotation Zrotation
						JOINT RightForeArm
						{
							OFFSET	-1.6131	-1.8059	0.0081
							CHANNELS 3 Yrotation Xrotation Zrotation
							JOINT RightHand
							{
								OFFSET	-1.2197	-1.2423	1.6317
								CHANNELS 3 Yrotation Xrotation Zrotation
								JOINT RThumb
								{
									OFFSET	-0.0109	-0.0753	0.4387
									CHANNELS 3 Yrotation Xrotation Zrotation
									End Site
									{
										OFFSET 0.2090 -0.0868 0.2097
									}
								}
								JOINT RightFingerBase
								{
									OFFSET	-0.1071	-0.1567	0.2607
									CHANNELS 3 Yrotation Xrotation Zrotation
									JOINT RightHandFinger1
									{
										OFFSET	-0.1706	-0.2492	0.6830
										CHANNELS 3 Yrotation Xrotation Zrotation
										End Site
										{
											OFFSET -0.0335 -0.1507 0.2071
										}
									}
								}
							}
						}
					}
				}
			}
		}
	}
	JOINT RHipJoint
	{
		OFFSET	0.0000	0.0000	0.0000
		CHANNELS 3 Yrotation Xrotation Zrotation
		JOINT RightUpLeg
		{
			OFFSET	-1.0138	-0.0809	-0.0827
			CHANNELS 3 Yrotation Xrotation Zrotation
			JOINT RightLeg
			{
				OFFSET	-0.4110	-3.9095	0.3245
				CHANNELS 3 Yrotation Xrotation Zrotation
				JOINT RightFoot
				{
					OFFSET	-0.3810	-4.0555	-0.1470
					CHANNELS 3 Yrotation Xrotation Zrotation
					JOINT RightToeBase
					{
						OFFSET	-0.1396	-0.4462	1.3079
						CHANNELS 3 Yrotation Xrotation Zrotation
						End Site
						{
							OFFSET -0.0161 -0.0248 0.1809
						}
					}
				}
			}
		}
	}
}
MOTION
Frames: 10
Frame Time: 0.0333333
-0.0001 8.3942 0.0325 65.8967 7.4547 -2.0847 0.0000 -0.0000 0.0000 14.9378 -27.6368 -6.2914 6.3393 60.7153 2.3545 -0.9963 -7.4599 7.9763 0.0000 -8.9757 -0.0000 0.0000 -0.0000 0.0000 -5.9189 4.8909 1.5899 -11.9252 9.7369 1.4964 -8.1316 0.5865 -0.2358 -39.9245 -7.0156 -10.8965 18.4370 20.6045 1.2202 12.7844 1.4639 7.4590 21.4116 0.3069 11.5795 -13.2224 22.2698 -17.2110 -3.3662 -7.3911 -0.0398 -6.0338 4.9510 -0.8438 -6.0535 4.9281 -0.8329 -29.8761 -8.9007 12.7005 -1.3905 0.5953 0.4069 18.1796 -2.0290 24.5948 -22.0720 23.8984 -2.5335 -1.7062 4.0077 -6.2182 2.2151 -17.7471 -41.4625 13.2938 15.5529 15.6294 13.7172 2.4231 8.2630 0.0000 -0.0000 0.0000 -1.5934 -23.0530 7.8357 3.8546 27.2161 2.4592 2.0307 -11.0063 -7.0219 0.0000 -6.0108 -0.0000 
-0.0513 8.4645 0.0681 66.0080 7.6072 -0.8101 0.0000 -0.0000 0.0000 13.8580 -31.7423 -6.2937 4.8412 51.4147 1.3948 -0.6287 -7.7957 4.5425 0.0000 -7.9512 -0.0000 0.0000 -0.0000 0.0000 -5.5935 4.7895 0.6841 -11.4510 9.4649 -0.1775 -7.6108 0.7104 -0.3802 -36.8763 -3.6621 -11.2273 17.7240 19.9319 0.9861 12.1135 -0.3333 5.9704 21.4116 0.3069 11.5795 -12.8133 21.4915 -16.7044 -3.3535 -7.4060 -0.0298 -6.0650 4.7790 -0.8808 -6.0767 4.7679 -0.8566 -29.9761 -8.4468 12.8628 -0.8074 0.4203 0.2093 19.0241 -3.1108 25.1645 -20.2662 22.2906 -1.8565 -0.8833 3.7235 -5.9884 2.2151 -17.7471 -41.4625 13.1694 15.5894 15.5294 13.7743 2.4715 8.3105 0.0000 -0.0000 0.0000 -1.1555 -18.7493 5.1036 4.4177 25.2796 2.5036 2.3058 -13.6350 -6.1625 0.0000 -6.0108 -0.0000 
-0.0990 8.4828 0.0980 65.6773 7.8678 -0.5514 0.0000 -0.0000 0.0000 11.6861 -34.3095 -4.3034 3.6410 38.9814 0.8172 -0.4830 -6.9418 3.2847 0.0000 -6.9833 -0.0000 0.0000 -0.0000 0.0000 -5.2140 4.7380 0.1959 -10.7291 9.3731 -0.7776 -7.0549 0.8776 -0.4553 -33.8243 -0.3248 -12.2454 16.1440 18.4124 0.4962 12.0755 -1.5878 4.3171 21.4116 0.3069 11.5795 -12.6670 21.2788 -16.5349 -3.3564 -7.4026 -0.0321 -6.0923 4.5350 -1.0135 -6.1025 4.5269 -0.9773 -30.2694 -8.3102 13.4030 -0.0845 0.2180 0.0956 19.6676 -4.1989 25.1920 -18.3865 20.5571 -1.2034 -0.0037 3.7379 -6.2679 2.2151 -17.7471 -41.4625 13.7967 15.9823 16.1857 13.8174 2.5078 8.3463 0.0000 -0.0000 0.0000 -1.2573 -14.6142 3.4468 5.1753 23.3295 2.5799 2.7237 -16.1847 -5.3238 0.0000 -6.0108 0.0000 
-0.1312 8.4448 0.1209 64.9410 8.1276 -1.2657 0.0000 -0.0000 0.0000 8.8543 -35.3783 -0.3896 0.9700 24.7358 -0.2208 -0.0436 -6.6518 -1.0244 0.0000 -4.5583 0.0000 0.0000 -0.0000 0.0000 -4.7124 4.6598 0.1895 -9.5785 9.3028 -0.1428 -6.4692 1.0762 -0.4945 -30.9009 2.9090 -13.7635 14.1439 16.4329 -0.0653 12.5303 -1.9909 3.0583 21.4116 0.3069 11.5795 -12.7083 21.4088 -16.5969 -3.3659 -7.3914 -0.0396 -6.1334 4.1567 -1.1926 -6.1489 4.1423 -1.1474 -30.5792 -8.2576 13.8529 0.7382 -0.0007 -0.0789 19.9448 -5.0705 24.4708 -16.4939 18.7523 -0.6012 0.7021 3.8304 -6.7514 2.2151 -17.7471 -41.4625 15.2770 16.8233 17.7210 13.8115 2.5028 8.3414 0.0000 -0.0000 0.0000 -1.5596 -10.5993 2.6035 5.9819 21.6245 2.6530 3.3266 -18.8908 -4.4488 0.0000 -6.0108 0.0000 
-0.1330 8.3356 0.1393 63.4860 8.2287 -2.8571 0.0000 -0.0000 0.0000 6.0520 -36.5288 5.1448 0.3229 11.8446 -0.0178 0.2739 -7.7832 -4.3989 0.0000 -3.8002 0.0000 0.0000 -0.0000 0.0000 -3.9039 4.4666 0.6941 -7.7095 9.0247 1.6330 -5.8555 1.2857 -0.5175 -28.2593 5.5745 -15.6226 12.6555 14.9222 -0.4392 12.7916 -1.7182 2.6606 21.4116 0.3069 11.5795 -12.9776 21.8321 -16.9141 -3.3746 -7.3812 -0.0464 -6.2234 3.8243 -1.3629 -6.2487 3.7950 -1.3142 -30.8895 -8.4525 14.0626 1.7207 -0.2189 -0.2005 19.8647 -5.6906 23.1023 -14.7019 16.9912 -0.0846 1.0116 3.7174 -7.1076 2.2150 -17.7471 -41.4625 17.3107 17.9441 19.8270 13.7596 2.4590 8.2982 0.0000 -0.0000 0.0000 -1.8811 -6.8874 2.2414 7.2509 20.9125 2.9915 4.1588 -22.1440 -3.6493 0.0000 -6.0108 -0.0000 
-0.1008 8.1614 0.1607 61.5165 7.8484 -4.6459 0.0000 -0.0000 0.0000 3.7455 -41.1082 10.8984 2.0492 9.4324 0.2975 -0.5628 -11.9807 -1.8838 0.0000 -7.2551 -0.0000 0.0000 -0.0000 0.0000 -2.9736 4.3533 1.4393 -5.8386 8.8186 3.2386 -5.2015 1.4813 -0.4774 -26.0651 7.0357 -17.7381 12.6132 14.8788 -0.4492 12.3209 -1.2153 3.0578 21.4116 0.3069 11.5795 -13.5774 22.7689 -17.5650 -3.3819 -7.3725 -0.0521 -6.2748 3.7147 -1.5231 -6.3096 3.6700 -1.4755 -31.1304 -8.9588 14.5770 2.9770 -0.4307 -0.0632 19.5144 -6.3618 21.7421 -13.1410 15.4183 0.3214 0.9104 3.1907 -7.2515 2.2151 -17.7471 -41.4625 18.9976 18.8515 21.5813 13.7036 2.4116 8.2516 0.0000 -0.0000 0.0000 -2.0975 -3.0597 1.5644 8.7813 21.0316 3.5525 5.3550 -25.9992 -2.9584 -0.0000 -6.0108 -0.0000 
-0.1205 7.9968 0.1778 60.3148 7.4851 -5.3087 0.0000 -0.0000 0.0000 3.6625 -43.6022 12.7510 4.2295 9.4328 0.4933 -0.4475 -14.6049 -3.8834 -0.0000 -7.3638 -0.0000 0.0000 -0.0000 0.0000 -2.4400 4.4600 1.5248 -4.8631 9.0097 3.3234 -4.5388 1.6386 -0.3456 -24.3498 7.0198 -20.0253 14.3038 16.5934 -0.0229 11.5503 -0.5985 3.7813 21.4116 0.3069 11.5795 -14.3873 24.2177 -18.3860 -3.3907 -7.3623 -0.0589 -6.2766 3.6285 -1.5235 -6.3140 3.5856 -1.4703 -31.2909 -9.2993 15.4370 4.0506 -0.6229 0.1013 18.9715 -7.4005 21.1921 -11.8614 14.1038 0.6229 0.6077 2.2126 -7.3945 2.2150 -17.7471 -41.4625 19.3153 19.0665 21.9234 13.6871 2.3976 8.2379 0.0000 -0.0000 0.0000 -2.1145 1.0261 -0.1014 8.9159 20.0242 3.4207 6.6970 -29.0806 -1.9619 -0.0000 -6.0108 0.0000 
-0.1631 7.8347 0.1798 60.1325 7.2562 -4.5966 0.0000 -0.0000 0.0000 5.4313 -43.0732 10.1817 5.4036 10.7904 0.7304 0.2645 -11.5894 -5.4351 -0.0000 -7.3416 -0.0000 0.0000 -0.0000 0.0000 -2.3037 4.6212 0.9259 -4.7913 9.2829 1.7596 -3.9501 1.7387 -0.2243 -22.8842 5.9702 -22.3106 17.2029 19.4352 0.8201 11.4689 0.3064 4.4892 21.4116 0.3069 11.5794 -15.0047 25.5539 -18.9886 -3.3990 -7.3525 -0.0655 -6.2896 3.6496 -1.3585 -6.3158 3.6195 -1.3005 -31.4554 -9.2892 16.1822 4.7278 -0.7757 0.1343 18.4763 -8.6932 21.6357 -10.7320 12.9261 0.8649 0.4585 0.9979 -7.9770 2.2151 -17.7471 -41.4625 18.1818 18.5354 20.7572 13.7102 2.4172 8.2571 0.0000 -0.0000 0.0000 -2.1403 5.4982 -2.8995 9.1578 18.1432 3.1643 6.3807 -31.9003 -0.4902 0.0000 -6.0108 -0.0000 
-0.1300 7.7161 0.1646 60.3301 6.5517 -3.0116 0.0000 -0.0000 0.0000 5.6447 -45.6152 6.7000 3.4400 21.8883 0.9763 0.2810 -0.8998 -1.7775 0.0000 -10.8936 0.0000 0.0000 -0.0000 0.0000 -2.4085 4.7708 0.0650 -5.2775 9.5193 -0.3950 -3.5036 1.7703 -0.2488 -21.4296 4.7216 -24.3836 20.3626 22.3779 1.8914 12.4441 1.3599 5.1941 21.4116 0.3069 11.5795 -15.1960 26.0463 -19.1703 -3.3993 -7.3522 -0.0657 -6.2800 3.8707 -1.2340 -6.2944 3.8573 -1.1764 -31.4802 -8.5975 16.4154 5.0625 -0.8714 0.0802 18.2996 -9.8122 22.5697 -9.4988 11.6229 1.1029 0.8027 -0.0820 -9.4639 2.2151 -17.7471 -41.4625 16.5334 17.6617 19.0456 13.7419 2.4440 8.2835 0.0000 -0.0000 0.0000 -7.5346 8.9585 -8.4392 9.0974 17.6310 3.4867 10.7112 -30.2116 -0.4882 -0.0000 -11.1567 -0.0000 
-0.0667 7.6986 0.1247 60.6707 6.1093 -1.6053 0.0000 -0.0000 0.0000 5.2810 -43.1987 3.4955 0.3524 24.3878 -0.1267 1.1180 11.8528 -1.1853 0.0000 -11.5753 0.0000 0.0000 -0.0000 0.0000 -2.7972 4.5396 -0.6557 -6.0344 9.0633 -1.2279 -3.2741 1.7141 -0.4016 -20.2012 3.7655 -26.0708 22.9752 24.6809 2.8895 13.9277 1.9762 5.9391 21.4116 0.3069 11.5795 -14.9528 25.5619 -18.9384 -3.3906 -7.3625 -0.0589 -6.1796 4.0044 -1.2828 -6.1834 4.0049 -1.2286 -31.1937 -7.2824 16.2345 5.1684 -0.8901 -0.1232 18.3017 -10.5662 23.5918 -8.0840 10.1074 1.3416 1.6666 -1.1674 -11.5985 2.2151 -17.7471 -41.4625 14.9178 16.7979 17.3700 13.7502 2.4511 8.2904 0.0000 -0.0000 0.0000 -12.8447 7.3628 -14.3768 8.4321 23.6843 4.8032 14.6135 -19.8270 -0.2852 -0.0311 -19.9696 1.1860 
